<svg xmlns="http://www.w3.org/2000/svg" xmlns:xlink="http://www.w3.org/1999/xlink" width="1357" zoomAndPan="magnify" viewBox="0 0 1017.75 162.749997" height="217" preserveAspectRatio="xMidYMid meet" version="1.0"><defs><g/></defs><g fill="#ffffff" fill-opacity="1"><g transform="translate(0.667385, 115.917513)"><g><path d="M 87.203125 -28.5625 C 87.203125 -22.550781 85.8125 -17.539062 83.03125 -13.53125 C 80.257812 -9.519531 76.6875 -6.304688 72.3125 -3.890625 C 67.9375 -1.472656 63.101562 0.234375 57.8125 1.234375 C 52.53125 2.234375 47.429688 2.734375 42.515625 2.734375 C 39.140625 2.734375 35.695312 2.523438 32.1875 2.109375 C 28.675781 1.703125 25.328125 1.203125 22.140625 0.609375 C 18.953125 0.0234375 16.015625 -0.675781 13.328125 -1.5 C 10.640625 -2.320312 8.335938 -3.144531 6.421875 -3.96875 L 7.109375 -7.796875 C 9.109375 -6.972656 11.566406 -6.128906 14.484375 -5.265625 C 17.398438 -4.398438 20.429688 -3.625 23.578125 -2.9375 C 26.722656 -2.25 29.863281 -1.703125 33 -1.296875 C 36.144531 -0.890625 38.992188 -0.6875 41.546875 -0.6875 C 44.828125 -0.6875 48.265625 -0.957031 51.859375 -1.5 C 55.460938 -2.050781 58.742188 -3.054688 61.703125 -4.515625 C 64.671875 -5.972656 67.109375 -8.019531 69.015625 -10.65625 C 70.929688 -13.300781 71.890625 -16.675781 71.890625 -20.78125 C 71.890625 -24.601562 71.046875 -27.5625 69.359375 -29.65625 C 67.679688 -31.757812 65.539062 -33.332031 62.9375 -34.375 C 60.34375 -35.425781 57.492188 -36.15625 54.390625 -36.5625 C 51.296875 -36.96875 48.335938 -37.351562 45.515625 -37.71875 C 41.867188 -38.269531 37.8125 -38.953125 33.34375 -39.765625 C 28.882812 -40.585938 24.71875 -41.863281 20.84375 -43.59375 C 16.96875 -45.332031 13.707031 -47.679688 11.0625 -50.640625 C 8.425781 -53.597656 7.109375 -57.492188 7.109375 -62.328125 C 7.109375 -67.972656 8.359375 -72.597656 10.859375 -76.203125 C 13.367188 -79.804688 16.582031 -82.628906 20.5 -84.671875 C 24.414062 -86.722656 28.789062 -88.160156 33.625 -88.984375 C 38.457031 -89.804688 43.195312 -90.21875 47.84375 -90.21875 C 53.488281 -90.21875 59 -89.851562 64.375 -89.125 C 69.75 -88.394531 75.082031 -87.117188 80.375 -85.296875 L 79.140625 -81.609375 C 75.035156 -83.242188 70.25 -84.515625 64.78125 -85.421875 C 59.320312 -86.335938 53.722656 -86.796875 47.984375 -86.796875 C 45.242188 -86.796875 42.367188 -86.585938 39.359375 -86.171875 C 36.359375 -85.765625 33.601562 -84.992188 31.09375 -83.859375 C 28.59375 -82.722656 26.519531 -81.082031 24.875 -78.9375 C 23.238281 -76.789062 22.421875 -73.988281 22.421875 -70.53125 C 22.421875 -66.425781 23.351562 -63.257812 25.21875 -61.03125 C 27.082031 -58.800781 29.65625 -57.113281 32.9375 -55.96875 C 36.21875 -54.832031 40.09375 -54.015625 44.5625 -53.515625 C 49.03125 -53.015625 53.859375 -52.398438 59.046875 -51.671875 C 65.148438 -50.847656 70.046875 -49.59375 73.734375 -47.90625 C 77.429688 -46.21875 80.28125 -44.300781 82.28125 -42.15625 C 84.289062 -40.019531 85.613281 -37.765625 86.25 -35.390625 C 86.882812 -33.023438 87.203125 -30.75 87.203125 -28.5625 Z M 87.203125 -28.5625 "/></g></g></g><g fill="#ffffff" fill-opacity="1"><g transform="translate(94.299038, 115.917513)"><g><path d="M 86.109375 -35.53125 C 86.109375 -30.070312 85.082031 -25.039062 83.03125 -20.4375 C 80.988281 -15.832031 78.164062 -11.863281 74.5625 -8.53125 C 70.957031 -5.207031 66.671875 -2.613281 61.703125 -0.75 C 56.742188 1.113281 51.347656 2.046875 45.515625 2.046875 C 39.679688 2.046875 34.300781 1.113281 29.375 -0.75 C 24.457031 -2.613281 20.195312 -5.207031 16.59375 -8.53125 C 13 -11.863281 10.175781 -15.832031 8.125 -20.4375 C 6.082031 -25.039062 5.0625 -30.070312 5.0625 -35.53125 C 5.0625 -41 6.082031 -46.035156 8.125 -50.640625 C 10.175781 -55.242188 13 -59.207031 16.59375 -62.53125 C 20.195312 -65.863281 24.457031 -68.460938 29.375 -70.328125 C 34.300781 -72.191406 39.679688 -73.125 45.515625 -73.125 C 51.347656 -73.125 56.742188 -72.191406 61.703125 -70.328125 C 66.671875 -68.460938 70.957031 -65.863281 74.5625 -62.53125 C 78.164062 -59.207031 80.988281 -55.242188 83.03125 -50.640625 C 85.082031 -46.035156 86.109375 -41 86.109375 -35.53125 Z M 70.25 -35.53125 C 70.25 -39.539062 69.929688 -43.617188 69.296875 -47.765625 C 68.660156 -51.910156 67.429688 -55.671875 65.609375 -59.046875 C 63.785156 -62.421875 61.253906 -65.175781 58.015625 -67.3125 C 54.785156 -69.457031 50.617188 -70.53125 45.515625 -70.53125 C 40.410156 -70.53125 36.265625 -69.457031 33.078125 -67.3125 C 29.890625 -65.175781 27.382812 -62.421875 25.5625 -59.046875 C 23.738281 -55.671875 22.503906 -51.910156 21.859375 -47.765625 C 21.222656 -43.617188 20.90625 -39.539062 20.90625 -35.53125 C 20.90625 -31.53125 21.222656 -27.457031 21.859375 -23.3125 C 22.503906 -19.164062 23.738281 -15.40625 25.5625 -12.03125 C 27.382812 -8.65625 29.890625 -5.894531 33.078125 -3.75 C 36.265625 -1.613281 40.410156 -0.546875 45.515625 -0.546875 C 50.617188 -0.546875 54.785156 -1.613281 58.015625 -3.75 C 61.253906 -5.894531 63.785156 -8.65625 65.609375 -12.03125 C 67.429688 -15.40625 68.660156 -19.164062 69.296875 -23.3125 C 69.929688 -27.457031 70.25 -31.53125 70.25 -35.53125 Z M 70.25 -35.53125 "/></g></g></g><g fill="#ffffff" fill-opacity="1"><g transform="translate(185.470294, 115.917513)"><g><path d="M 43.609375 -96.5 C 41.691406 -96.5 39.820312 -96.363281 38 -96.09375 C 36.175781 -95.820312 34.554688 -95.25 33.140625 -94.375 C 31.734375 -93.507812 30.597656 -92.234375 29.734375 -90.546875 C 28.867188 -88.867188 28.4375 -86.617188 28.4375 -83.796875 L 28.4375 -67.65625 L 41.828125 -67.65625 L 40.875 -64.25 L 28.703125 -64.25 L 28.703125 0 L 14.625 0 L 14.625 -64.25 L 2.734375 -64.25 L 4.234375 -67.65625 L 14.359375 -67.65625 L 14.359375 -72.03125 C 14.359375 -77.226562 15.289062 -81.554688 17.15625 -85.015625 C 19.019531 -88.484375 21.410156 -91.265625 24.328125 -93.359375 C 27.242188 -95.453125 30.476562 -96.929688 34.03125 -97.796875 C 37.582031 -98.660156 41.046875 -99.09375 44.421875 -99.09375 Z M 43.609375 -96.5 "/></g></g></g><g fill="#ffffff" fill-opacity="1"><g transform="translate(230.98758, 115.917513)"><g><path d="M 41.28125 -64.25 L 28.4375 -64.25 L 28.4375 -10.796875 C 28.4375 -9.160156 28.9375 -7.519531 29.9375 -5.875 C 30.9375 -4.238281 32.394531 -3.421875 34.3125 -3.421875 L 40.875 -3.421875 L 40.046875 0 L 20.5 0 C 18.226562 0 16.632812 -1.046875 15.71875 -3.140625 C 14.8125 -5.234375 14.359375 -7.421875 14.359375 -9.703125 L 14.359375 -64.25 L 4.234375 -64.25 L 5.46875 -67.65625 L 14.359375 -67.65625 L 14.359375 -87.203125 L 28.4375 -87.203125 L 28.4375 -67.65625 L 42.234375 -67.65625 Z M 41.28125 -64.25 "/></g></g></g><g fill="#ffffff" fill-opacity="1"><g transform="translate(276.504854, 115.917513)"><g><path d="M 87.203125 -28.5625 C 87.203125 -22.550781 85.8125 -17.539062 83.03125 -13.53125 C 80.257812 -9.519531 76.6875 -6.304688 72.3125 -3.890625 C 67.9375 -1.472656 63.101562 0.234375 57.8125 1.234375 C 52.53125 2.234375 47.429688 2.734375 42.515625 2.734375 C 39.140625 2.734375 35.695312 2.523438 32.1875 2.109375 C 28.675781 1.703125 25.328125 1.203125 22.140625 0.609375 C 18.953125 0.0234375 16.015625 -0.675781 13.328125 -1.5 C 10.640625 -2.320312 8.335938 -3.144531 6.421875 -3.96875 L 7.109375 -7.796875 C 9.109375 -6.972656 11.566406 -6.128906 14.484375 -5.265625 C 17.398438 -4.398438 20.429688 -3.625 23.578125 -2.9375 C 26.722656 -2.25 29.863281 -1.703125 33 -1.296875 C 36.144531 -0.890625 38.992188 -0.6875 41.546875 -0.6875 C 44.828125 -0.6875 48.265625 -0.957031 51.859375 -1.5 C 55.460938 -2.050781 58.742188 -3.054688 61.703125 -4.515625 C 64.671875 -5.972656 67.109375 -8.019531 69.015625 -10.65625 C 70.929688 -13.300781 71.890625 -16.675781 71.890625 -20.78125 C 71.890625 -24.601562 71.046875 -27.5625 69.359375 -29.65625 C 67.679688 -31.757812 65.539062 -33.332031 62.9375 -34.375 C 60.34375 -35.425781 57.492188 -36.15625 54.390625 -36.5625 C 51.296875 -36.96875 48.335938 -37.351562 45.515625 -37.71875 C 41.867188 -38.269531 37.8125 -38.953125 33.34375 -39.765625 C 28.882812 -40.585938 24.71875 -41.863281 20.84375 -43.59375 C 16.96875 -45.332031 13.707031 -47.679688 11.0625 -50.640625 C 8.425781 -53.597656 7.109375 -57.492188 7.109375 -62.328125 C 7.109375 -67.972656 8.359375 -72.597656 10.859375 -76.203125 C 13.367188 -79.804688 16.582031 -82.628906 20.5 -84.671875 C 24.414062 -86.722656 28.789062 -88.160156 33.625 -88.984375 C 38.457031 -89.804688 43.195312 -90.21875 47.84375 -90.21875 C 53.488281 -90.21875 59 -89.851562 64.375 -89.125 C 69.75 -88.394531 75.082031 -87.117188 80.375 -85.296875 L 79.140625 -81.609375 C 75.035156 -83.242188 70.25 -84.515625 64.78125 -85.421875 C 59.320312 -86.335938 53.722656 -86.796875 47.984375 -86.796875 C 45.242188 -86.796875 42.367188 -86.585938 39.359375 -86.171875 C 36.359375 -85.765625 33.601562 -84.992188 31.09375 -83.859375 C 28.59375 -82.722656 26.519531 -81.082031 24.875 -78.9375 C 23.238281 -76.789062 22.421875 -73.988281 22.421875 -70.53125 C 22.421875 -66.425781 23.351562 -63.257812 25.21875 -61.03125 C 27.082031 -58.800781 29.65625 -57.113281 32.9375 -55.96875 C 36.21875 -54.832031 40.09375 -54.015625 44.5625 -53.515625 C 49.03125 -53.015625 53.859375 -52.398438 59.046875 -51.671875 C 65.148438 -50.847656 70.046875 -49.59375 73.734375 -47.90625 C 77.429688 -46.21875 80.28125 -44.300781 82.28125 -42.15625 C 84.289062 -40.019531 85.613281 -37.765625 86.25 -35.390625 C 86.882812 -33.023438 87.203125 -30.75 87.203125 -28.5625 Z M 87.203125 -28.5625 "/></g></g></g><g fill="#ffffff" fill-opacity="1"><g transform="translate(370.136519, 115.917513)"><g><path d="M 16.265625 0 C 13.984375 0 12.382812 -1.046875 11.46875 -3.140625 C 10.5625 -5.234375 10.109375 -7.421875 10.109375 -9.703125 L 10.109375 -62.1875 C 10.109375 -64.289062 10.609375 -66.296875 11.609375 -68.203125 C 12.617188 -70.117188 14.171875 -71.078125 16.265625 -71.078125 L 74.078125 -71.078125 L 74.078125 -67.65625 L 30.078125 -67.65625 C 28.335938 -67.65625 26.921875 -66.992188 25.828125 -65.671875 C 24.734375 -64.359375 24.1875 -62.832031 24.1875 -61.09375 L 24.1875 -40.1875 L 68.609375 -40.1875 L 68.609375 -36.765625 L 24.1875 -36.765625 L 24.1875 -10.796875 C 24.1875 -9.160156 24.6875 -7.519531 25.6875 -5.875 C 26.695312 -4.238281 28.160156 -3.421875 30.078125 -3.421875 L 78.453125 -3.421875 L 78.453125 0 Z M 16.265625 0 "/></g></g></g><g fill="#ffffff" fill-opacity="1"><g transform="translate(452.149633, 115.917513)"><g><path d="M 66.015625 0 C 65.648438 -1.269531 65.125 -2.929688 64.4375 -4.984375 C 63.757812 -7.035156 62.988281 -9.203125 62.125 -11.484375 C 61.257812 -13.765625 60.367188 -16.039062 59.453125 -18.3125 C 58.546875 -20.59375 57.679688 -22.597656 56.859375 -24.328125 C 55.765625 -26.703125 54.578125 -28.640625 53.296875 -30.140625 C 52.023438 -31.640625 50.5 -32.867188 48.71875 -33.828125 C 46.945312 -34.785156 44.875 -35.445312 42.5 -35.8125 C 40.132812 -36.175781 37.3125 -36.359375 34.03125 -36.359375 L 29.65625 -36.359375 L 31.84375 -39.640625 L 42.78125 -39.640625 C 45.425781 -39.640625 47.929688 -39.890625 50.296875 -40.390625 C 52.671875 -40.890625 54.742188 -41.734375 56.515625 -42.921875 C 58.296875 -44.109375 59.734375 -45.632812 60.828125 -47.5 C 61.921875 -49.363281 62.46875 -51.707031 62.46875 -54.53125 C 62.46875 -56.71875 61.921875 -58.628906 60.828125 -60.265625 C 59.734375 -61.910156 58.226562 -63.28125 56.3125 -64.375 C 54.394531 -65.46875 52.160156 -66.285156 49.609375 -66.828125 C 47.066406 -67.378906 44.289062 -67.65625 41.28125 -67.65625 L 30.078125 -67.65625 C 28.335938 -67.65625 26.921875 -66.992188 25.828125 -65.671875 C 24.734375 -64.359375 24.1875 -62.832031 24.1875 -61.09375 L 24.1875 0 L 10.109375 0 L 10.109375 -62.1875 C 10.109375 -64.289062 10.609375 -66.296875 11.609375 -68.203125 C 12.617188 -70.117188 14.171875 -71.078125 16.265625 -71.078125 L 37.859375 -71.078125 C 51.078125 -71.078125 60.894531 -69.753906 67.3125 -67.109375 C 73.738281 -64.472656 76.953125 -60.007812 76.953125 -53.71875 C 76.953125 -50.894531 76.289062 -48.457031 74.96875 -46.40625 C 73.644531 -44.351562 71.84375 -42.617188 69.5625 -41.203125 C 67.289062 -39.796875 64.601562 -38.703125 61.5 -37.921875 C 58.40625 -37.148438 55.082031 -36.675781 51.53125 -36.5 L 51.53125 -36.359375 C 54.8125 -35.628906 57.703125 -34.804688 60.203125 -33.890625 C 62.710938 -32.984375 64.921875 -31.773438 66.828125 -30.265625 C 68.742188 -28.765625 70.453125 -26.898438 71.953125 -24.671875 C 73.460938 -22.441406 74.898438 -19.6875 76.265625 -16.40625 L 82.96875 0 Z M 66.015625 0 "/></g></g></g><g fill="#ffffff" fill-opacity="1"><g transform="translate(538.263412, 115.917513)"><g><path d="M 48.65625 -5.1875 C 47.65625 -3.363281 46.539062 -1.742188 45.3125 -0.328125 C 44.082031 1.078125 42.828125 1.78125 41.546875 1.78125 C 39.722656 1.78125 38.039062 0.273438 36.5 -2.734375 L 1.359375 -71.078125 L 18.046875 -71.078125 L 45.796875 -16.953125 C 46.609375 -15.304688 47.378906 -14.484375 48.109375 -14.484375 C 48.660156 -14.484375 49.207031 -14.828125 49.75 -15.515625 C 50.300781 -16.203125 50.894531 -17.132812 51.53125 -18.3125 L 80.09375 -71.078125 L 84.34375 -71.078125 Z M 48.65625 -5.1875 "/></g></g></g><g fill="#ffffff" fill-opacity="1"><g transform="translate(623.967161, 115.917513)"><g><path d="M 16.265625 0 C 13.984375 0 12.382812 -1.046875 11.46875 -3.140625 C 10.5625 -5.234375 10.109375 -7.421875 10.109375 -9.703125 L 10.109375 -62.1875 C 10.109375 -64.289062 10.609375 -66.296875 11.609375 -68.203125 C 12.617188 -70.117188 14.171875 -71.078125 16.265625 -71.078125 L 74.078125 -71.078125 L 74.078125 -67.65625 L 30.078125 -67.65625 C 28.335938 -67.65625 26.921875 -66.992188 25.828125 -65.671875 C 24.734375 -64.359375 24.1875 -62.832031 24.1875 -61.09375 L 24.1875 -40.1875 L 68.609375 -40.1875 L 68.609375 -36.765625 L 24.1875 -36.765625 L 24.1875 -10.796875 C 24.1875 -9.160156 24.6875 -7.519531 25.6875 -5.875 C 26.695312 -4.238281 28.160156 -3.421875 30.078125 -3.421875 L 78.453125 -3.421875 L 78.453125 0 Z M 16.265625 0 "/></g></g></g><g fill="#ffffff" fill-opacity="1"><g transform="translate(705.980275, 115.917513)"><g/></g></g><g fill="#ffffff" fill-opacity="1"><g transform="translate(750.267346, 115.917513)"><g><path d="M 19.265625 0 C 18.085938 0 17.085938 -0.316406 16.265625 -0.953125 C 15.441406 -1.585938 14.78125 -2.40625 14.28125 -3.40625 C 13.78125 -4.414062 13.414062 -5.535156 13.1875 -6.765625 C 12.957031 -7.992188 12.84375 -9.15625 12.84375 -10.25 L 12.84375 -87.484375 L 28.703125 -87.484375 L 28.703125 -11.34375 C 28.703125 -9.519531 29.132812 -7.742188 30 -6.015625 C 30.863281 -4.285156 32.207031 -3.421875 34.03125 -3.421875 L 86.25 -3.421875 L 86.25 0 Z M 19.265625 0 "/></g></g></g><g fill="#ffffff" fill-opacity="1"><g transform="translate(839.251563, 115.917513)"><g><path d="M 63.15625 0 L 63.15625 -40.59375 L 52.34375 -40.59375 C 48.707031 -40.59375 45.085938 -40.316406 41.484375 -39.765625 C 37.878906 -39.222656 34.664062 -38.175781 31.84375 -36.625 C 29.019531 -35.082031 26.742188 -32.921875 25.015625 -30.140625 C 23.285156 -27.359375 22.421875 -23.734375 22.421875 -19.265625 C 22.421875 -14.253906 23.765625 -10.359375 26.453125 -7.578125 C 29.140625 -4.804688 33.441406 -3.421875 39.359375 -3.421875 L 55.90625 -3.421875 L 57.6875 0 L 35.40625 0 C 31.851562 0 28.363281 -0.363281 24.9375 -1.09375 C 21.519531 -1.820312 18.445312 -3.003906 15.71875 -4.640625 C 12.988281 -6.285156 10.78125 -8.472656 9.09375 -11.203125 C 7.40625 -13.941406 6.5625 -17.359375 6.5625 -21.453125 C 6.5625 -24.828125 7.359375 -27.742188 8.953125 -30.203125 C 10.546875 -32.671875 12.660156 -34.722656 15.296875 -36.359375 C 17.941406 -37.992188 20.925781 -39.3125 24.25 -40.3125 C 27.582031 -41.320312 30.929688 -42.097656 34.296875 -42.640625 C 37.671875 -43.191406 40.976562 -43.554688 44.21875 -43.734375 C 47.457031 -43.921875 50.257812 -44.015625 52.625 -44.015625 L 63.15625 -44.015625 L 63.15625 -48.109375 C 63.15625 -54.671875 61.554688 -59.929688 58.359375 -63.890625 C 55.171875 -67.859375 50.113281 -69.84375 43.1875 -69.84375 C 36.632812 -69.84375 30.734375 -69.226562 25.484375 -68 C 20.242188 -66.769531 15.484375 -64.972656 11.203125 -62.609375 L 10.25 -66.296875 C 15.625 -69.117188 21.269531 -70.960938 27.1875 -71.828125 C 33.113281 -72.691406 39.132812 -73.125 45.25 -73.125 C 49.164062 -73.125 53.035156 -72.734375 56.859375 -71.953125 C 60.691406 -71.179688 64.109375 -69.90625 67.109375 -68.125 C 70.117188 -66.351562 72.554688 -64.007812 74.421875 -61.09375 C 76.296875 -58.175781 77.234375 -54.578125 77.234375 -50.296875 L 77.234375 0 Z M 63.15625 0 "/></g></g></g><g fill="#ffffff" fill-opacity="1"><g transform="translate(925.638756, 115.917513)"><g><path d="M 86.25 -36.21875 C 86.25 -31.476562 85.242188 -26.921875 83.234375 -22.546875 C 81.234375 -18.179688 78.5 -14.332031 75.03125 -11 C 71.570312 -7.675781 67.519531 -5.007812 62.875 -3 C 58.226562 -1 53.304688 0 48.109375 0 L 29.25 0 L 31.171875 -3.421875 L 41.140625 -3.421875 C 44.785156 -3.421875 48.363281 -3.875 51.875 -4.78125 C 55.382812 -5.695312 58.503906 -7.359375 61.234375 -9.765625 C 63.972656 -12.179688 66.179688 -15.53125 67.859375 -19.8125 C 69.546875 -24.101562 70.390625 -29.570312 70.390625 -36.21875 C 70.390625 -43.238281 69.566406 -48.890625 67.921875 -53.171875 C 66.285156 -57.453125 64.257812 -60.800781 61.84375 -63.21875 C 59.4375 -65.632812 56.84375 -67.25 54.0625 -68.0625 C 51.28125 -68.882812 48.796875 -69.296875 46.609375 -69.296875 C 41.691406 -69.296875 37.410156 -68.382812 33.765625 -66.5625 C 30.117188 -64.738281 26.789062 -62.691406 23.78125 -60.421875 L 23.78125 0 L 9.703125 0 L 9.703125 -99.09375 L 23.78125 -99.09375 L 23.78125 -64.796875 C 25.0625 -65.796875 26.453125 -66.796875 27.953125 -67.796875 C 29.453125 -68.796875 31.25 -69.679688 33.34375 -70.453125 C 35.445312 -71.234375 37.910156 -71.875 40.734375 -72.375 C 43.554688 -72.875 46.925781 -73.125 50.84375 -73.125 C 54.757812 -73.125 58.789062 -72.28125 62.9375 -70.59375 C 67.082031 -68.914062 70.882812 -66.503906 74.34375 -63.359375 C 77.8125 -60.210938 80.660156 -56.335938 82.890625 -51.734375 C 85.128906 -47.128906 86.25 -41.957031 86.25 -36.21875 Z M 86.25 -36.21875 "/></g></g></g></svg>